<?xml version="1.0" standalone="no"?>
<!DOCTYPE svg PUBLIC "-//W3C//DTD SVG 20010904//EN"
 "http://www.w3.org/TR/2001/REC-SVG-20010904/DTD/svg10.dtd">
<svg version="1.0" xmlns="http://www.w3.org/2000/svg"
 width="415.000000pt" height="415.000000pt" viewBox="0 0 415.000000 415.000000"
 preserveAspectRatio="xMidYMid meet">
<metadata>
Created by potrace 1.14, written by Peter Selinger 2001-2017
</metadata>
<g transform="translate(0.000000,415.000000) scale(0.100000,-0.100000)"
fill="#000000" stroke="none">
<path d="M1915 3938 c-82 -60 -157 -114 -165 -121 -8 -7 -40 -30 -70 -51 -75
-53 -1013 -734 -1125 -816 -49 -36 -146 -106 -215 -155 -69 -49 -127 -92 -130
-95 -3 -3 -51 -38 -108 -79 -56 -40 -102 -74 -102 -76 0 -3 104 -326 143 -445
14 -41 71 -217 127 -390 56 -173 110 -340 120 -370 28 -83 126 -388 245 -755
58 -181 117 -361 130 -400 l23 -70 1283 0 1282 0 8 25 c10 33 124 384 209 645
37 116 120 372 185 570 64 198 127 392 140 430 13 39 44 135 70 215 25 80 76
235 112 344 62 191 64 200 47 214 -11 7 -98 70 -194 140 -96 70 -179 130 -185
135 -13 10 -56 41 -920 669 -390 283 -721 522 -735 530 -24 15 -28 13 -175
-94z"/>
</g>
</svg>
